<svg width="100%" viewBox="0 0 1400 500" fill="none" xmlns="http://www.w3.org/2000/svg" style="">

  <defs>
    <linearGradient id="greenGradient" x1="120" y1="90" x2="430" y2="390" gradientUnits="userSpaceOnUse">
      <stop offset="0%" stop-color="#22E38E"/>
      <stop offset="100%" stop-color="#10C26B"/>
    </linearGradient>
  </defs>

  <!-- ICON top bar -->
  <path d="&#10;    M120 120&#10;    H250&#10;    C280 120 305 132 325 152&#10;    L410 235&#10;    L495 152&#10;    C515 132 540 120 570 120&#10;    H700&#10;    C712 120 720 128 720 140&#10;    C720 152 712 160 700 160&#10;    H585&#10;    C560 160 542 168 525 185&#10;    L445 265&#10;    C432 278 408 278 395 265&#10;    L315 185&#10;    C298 168 280 160 255 160&#10;    H140&#10;    C128 160 120 152 120 140&#10;    C120 128 128 120 140 120&#10;    Z" fill="url(#greenGradient)" style="stroke:none;color:rgb(0, 0, 0);stroke-width:1px;stroke-linecap:butt;stroke-linejoin:miter;opacity:1;font-family:&quot;Anthropic Sans&quot;, -apple-system, BlinkMacSystemFont, &quot;Segoe UI&quot;, sans-serif;font-size:16px;font-weight:400;text-anchor:start;dominant-baseline:auto"/>

  <!-- ICON bottom M -->
  <path d="&#10;    M190 230&#10;    C190 210 205 195 225 195&#10;    H270&#10;    C290 195 305 210 305 230&#10;    V365&#10;    L410 265&#10;    C422 253 442 253 454 265&#10;    L560 365&#10;    V230&#10;    C560 210 575 195 595 195&#10;    H640&#10;    C660 195 675 210 675 230&#10;    V410&#10;    C675 430 660 445 640 445&#10;    H595&#10;    C575 445 560 438 545 423&#10;    L432 317&#10;    C420 305 400 305 388 317&#10;    L275 423&#10;    C260 438 245 445 225 445&#10;    H225&#10;    C205 445 190 430 190 410&#10;    Z" fill="url(#greenGradient)" style="stroke:none;color:rgb(0, 0, 0);stroke-width:1px;stroke-linecap:butt;stroke-linejoin:miter;opacity:1;font-family:&quot;Anthropic Sans&quot;, -apple-system, BlinkMacSystemFont, &quot;Segoe UI&quot;, sans-serif;font-size:16px;font-weight:400;text-anchor:start;dominant-baseline:auto"/>

  <!-- TEXT -->
  <text x="760" y="355" fill="#0F172A" font-size="230" font-family="Poppins, Montserrat, Arial, sans-serif" font-weight="700" letter-spacing="-8" style="fill:rgb(15, 23, 42);stroke:none;color:rgb(0, 0, 0);stroke-width:1px;stroke-linecap:butt;stroke-linejoin:miter;opacity:1;font-family:Poppins, Montserrat, Arial, sans-serif;font-size:230px;font-weight:700;text-anchor:start;dominant-baseline:auto">
    Mira
  </text>

</svg>